# xmcd
#
# Track frame offsets:
#	150
#	16772
#	33732
#	52192
#	69579
#	86381
#	105771
#	122423
#	139068
#	158908
#	175793
#	194365
#	212052
#	231082
#	249377
#	265902
#
# Disc length: 3765 seconds
#
# Revision: 1
# Processed by: cddbd v1.5.2PL0 Copyright (c) Steve Scherf et al.
# Submitted via: audiograbber 1.83.01
#
DISCID=d20eb310
DTITLE=Helene Fischer - Farbenspiel
DYEAR=2013
DGENRE=Schlager
TTITLE0=Fehlerfrei
TTITLE1=Mit keinem Andern
TTITLE2=So kann das Leben sein
TTITLE3=Marathon
TTITLE4=Atemlos durch die Nacht
TTITLE5=Der Augenblick
TTITLE6=Te Quiero
TTITLE7=Captain meiner Seele
TTITLE8=In diesen Nächten
TTITLE9=Feuerwerk
TTITLE10=Ehrlich und klar
TTITLE11=Wunder Dich nicht
TTITLE12=Auf der Suche nach mir
TTITLE13=Alice im Wunderland
TTITLE14=Unser Tag
TTITLE15=Ein kleines Glück
EXTD=
EXTT0=
EXTT1=
EXTT2=
EXTT3=
EXTT4=
EXTT5=
EXTT6=
EXTT7=
EXTT8=
EXTT9=
EXTT10=
EXTT11=
EXTT12=
EXTT13=
EXTT14=
EXTT15=
PLAYORDER=
